<svg width="200" height="31" viewBox="0 0 200 31" fill="none" xmlns="http://www.w3.org/2000/svg">
<g clip-path="url(#clip0_4_11)">
<path d="M15.4333 25.7667C12.4667 25.7667 10 24.8 8 22.8C6 20.8 5.03333 18.3333 5.03333 15.3333C5.03333 12.3333 6 9.83334 8 7.86667C9.96667 5.86667 12.4667 4.86667 15.4333 4.86667C18.6667 4.86667 21.3667 6.03333 23.5 8.46666L27.1 5.4C24.0333 1.9 20.1333 0.133331 15.4667 0.133331C11.1333 0.133331 7.4 1.56666 4.36667 4.46666C1.36667 7.36666 -0.133331 11 -0.133331 15.3667C-0.133331 19.7 1.4 23.3333 4.36667 26.2667C7.4 29.1333 11.1 30.5667 15.4667 30.5667C20.0667 30.5667 24.2667 28.5667 27.1333 25.2L23.6 22.1333C21.5 24.5333 18.7667 25.7667 15.4333 25.7667Z" fill="#CDCFC8"/>
<path d="M194.3 26.1C194.3 25.6 194.7 25.1667 195.233 25.1667C195.767 25.1667 196.167 25.5667 196.167 26.1C196.167 26.6 195.767 27.0333 195.233 27.0333C194.733 27 194.3 26.6 194.3 26.1ZM192.7 25.1333L190.3 25.7667C190.3 25.9667 190.3 26.2 190.3 26.4L192.7 27.0333C192.9 27.1 192.967 27.3 192.9 27.4667L191.933 29.7333C192.1 29.8667 192.267 30 192.433 30.1333L194.433 28.6667C194.567 28.5667 194.767 28.6 194.867 28.7333C194.867 28.7333 194.867 28.7667 194.9 28.7667L196.067 30.9333C196.167 30.9333 196.267 30.9 196.367 30.8667C196.467 30.8333 196.567 30.8 196.667 30.7667L196.767 28.3C196.767 28.1333 196.933 28 197.1 28H197.133L199.567 28.4667C199.667 28.2667 199.767 28.1 199.833 27.9L197.967 26.2667C197.833 26.1667 197.833 25.9667 197.933 25.8333L197.967 25.8L199.833 24.2C199.767 24 199.667 23.8 199.567 23.6333L197.133 24.1C196.967 24.1333 196.8 24.0333 196.767 23.8667V23.8333L196.667 21.3667C196.467 21.3 196.267 21.2667 196.033 21.2333L194.867 23.4C194.8 23.5667 194.6 23.6 194.433 23.5333C194.433 23.5333 194.4 23.5333 194.4 23.5L192.4 22.0333C192.233 22.1667 192.067 22.3 191.9 22.4333L192.867 24.7C192.933 24.8667 192.867 25.0333 192.7 25.1C192.733 25.1 192.7 25.1333 192.7 25.1333Z" fill="#CDCFC8"/>
<path d="M53.2333 22.8667C51.2667 24.8333 48.8 25.8667 45.9 25.8667C43 25.8667 40.5 24.8667 38.5333 22.8667C36.5667 20.8667 35.5667 18.4 35.5667 15.4C35.5667 12.4333 36.5333 9.96667 38.5333 7.93334C40.5 5.90001 43 4.9 45.9 4.9C48.8 4.9 51.2667 5.90001 53.2333 7.93334C55.2 9.96667 56.2333 12.4333 56.2333 15.4C56.2333 18.3333 55.2 20.8333 53.2333 22.8667ZM45.9 0.100006C41.5667 0.100006 37.9 1.56667 34.9 4.53334C31.9 7.43334 30.4 11.0667 30.4 15.3667C30.4 19.6667 31.9333 23.3 34.9 26.2C37.8667 29.1 41.5667 30.6 45.9 30.6C50.2333 30.6 53.9667 29.1333 56.9333 26.2C59.9333 23.3 61.4333 19.6667 61.4333 15.3667C61.4333 11.0667 59.9 7.43334 56.8667 4.53334C53.9 1.60001 50.2333 0.100006 45.9 0.100006Z" fill="#CDCFC8"/>
<path d="M93 20.9L86.4333 0.899994H81.8333L75.2667 20.9L68.2333 0.899994H62.7333L72.8333 29.8333H77.5667L84.1 9.93332L90.6 29.8333H95.4L105.5 0.899994H100.033L93 20.9ZM121.933 25.1667H115.933V16.9333H121.9C124.633 16.9333 126.633 18.6667 126.633 21C126.6 23.4 124.633 25.1667 121.933 25.1667ZM115.933 5.63333H120.7C122.933 5.63333 124.533 7.1 124.533 9.03333C124.533 11.1667 122.933 12.6 120.667 12.6H115.933V5.63333ZM125.933 14.1333C128.333 13.2667 129.767 11.1 129.767 8.33333C129.767 6.19999 128.967 4.43333 127.333 3.06666C125.733 1.66666 123.767 0.933329 121.4 0.933329H110.567V29.8667H122.867C125.5 29.8667 127.633 29.0667 129.367 27.4667C131.133 25.8333 132 23.7667 132 21.3333C131.933 17.6333 129.767 14.8 125.933 14.1333Z" fill="#CDCFC8"/>
<path d="M158.833 22.8667C156.867 24.8333 154.4 25.8667 151.5 25.8667C148.6 25.8667 146.1 24.8667 144.133 22.8667C142.167 20.8667 141.167 18.4 141.167 15.4C141.167 12.4333 142.133 9.96667 144.133 7.93334C146.1 5.90001 148.6 4.9 151.5 4.9C154.4 4.9 156.867 5.90001 158.833 7.93334C160.8 9.96667 161.833 12.4333 161.833 15.4C161.833 18.3333 160.8 20.8333 158.833 22.8667ZM151.5 0.100006C147.167 0.100006 143.5 1.56667 140.5 4.53334C137.5 7.43334 136 11.0667 136 15.3667C136 19.6667 137.533 23.3 140.5 26.2C143.5 29.1 147.167 30.6 151.5 30.6C155.833 30.6 159.567 29.1333 162.533 26.2C165.533 23.3 167.033 19.6667 167.033 15.3667C167.033 11.0667 165.5 7.43334 162.467 4.53334C159.5 1.60001 155.833 0.100006 151.5 0.100006Z" fill="#CDCFC8"/>
<path d="M190.233 0.93335L181.633 15.2L173 0.93335H167.2L178.7 19.8L172.633 29.9H178.533L184.367 20.3333L196.167 0.96668H190.233V0.93335Z" fill="#CDCFC8"/>
</g>
<defs>
<clipPath id="clip0_4_11">
<rect width="200" height="31" fill="white"/>
</clipPath>
</defs>
</svg>
