<svg width="170" height="70" viewBox="0 0 170 70" fill="none" xmlns="http://www.w3.org/2000/svg">
<path d="M170 0H0V70H170V0Z" fill="#EB2027"/>
<path d="M55.3122 50.7232V45.0532C51.753 48.0094 47.386 50.0286 42.5991 50.7232H55.3122Z" fill="white"/>
<path d="M13.1508 25.3401C13.1508 18.8086 15.6169 12.8371 19.6608 8.30322H13V50.7232H35.1469C22.7192 48.914 13.1508 38.2255 13.1508 25.3401Z" fill="white"/>
<path d="M41.8995 19.1694L46.3041 17.5379L43.3695 9.64941L38.9648 11.2863L41.8995 19.1694Z" fill="white"/>
<path d="M52.8084 20.6986L55.3176 27.4294V8.30859H48.1938L51.613 17.484L46.9338 19.2178L42.5291 20.8494L43.5145 23.4878L38.8353 25.2217L33.6661 11.3455L38.3453 9.61167L41.8668 8.30859H24.2053C19.3968 12.4332 16.3438 18.5394 16.3438 25.3455C16.3438 37.7409 26.4507 47.8209 38.8784 47.8209C45.3614 47.8209 51.2038 45.0747 55.323 40.6917V35.5655L53.3038 36.314L48.7591 24.1124L44.3545 25.744L48.8991 37.9455L44.2199 39.6794L39.0507 25.8032L40.6984 25.1894L52.3022 20.8871L52.8084 20.6986ZM23.6937 28.9209L19.1491 16.7194L24.1568 14.8617L28.7014 27.0632L32.853 25.5232L28.3084 13.3217L33.063 11.5609L38.2322 25.4371L33.4776 27.1978L24.3184 30.5901L23.6937 28.9209ZM43.6007 39.9001L43.0891 40.0886L31.4853 44.3909L29.8376 45.0047L25.6538 33.7671L30.333 32.0332L34.7376 30.4017L33.7522 27.7632L38.4314 26.0294L43.6007 39.9001Z" fill="white"/>
<path d="M30.9521 33.8049L33.8921 41.6933L38.2968 40.0618L35.3568 32.1733L30.9521 33.8049Z" fill="white"/>
<path d="M70.6315 8.30324H77.0284V20.634C77.0284 21.8563 76.84 23.0086 76.4577 24.0963C76.0754 25.184 75.4777 26.1317 74.6592 26.9448C73.8408 27.7579 72.9846 28.3286 72.0908 28.6571C70.8469 29.1202 69.35 29.3463 67.6054 29.3463C66.5931 29.3463 65.4946 29.2763 64.2992 29.1363C63.1038 28.9963 62.1077 28.7163 61.3054 28.2963C60.5031 27.8763 59.7708 27.284 59.1031 26.514C58.4354 25.744 57.9831 24.9471 57.7354 24.1286C57.3369 22.8148 57.1431 21.6463 57.1431 20.6286V8.29785H63.54V20.9194C63.54 22.0502 63.8523 22.9279 64.4823 23.5632C65.1069 24.1986 65.9792 24.5163 67.0938 24.5163C68.1977 24.5163 69.0646 24.204 69.6892 23.5794C70.3138 22.9548 70.6315 22.0663 70.6315 20.9194V8.30324Z" fill="white"/>
<path d="M77.0283 28.9963V8.30322H87.9806C90.0106 8.30322 91.5614 8.47015 92.6383 8.80938C93.7099 9.14861 94.5768 9.77861 95.2337 10.694C95.8906 11.6094 96.2191 12.7294 96.2191 14.0486C96.2191 15.1955 95.966 16.1863 95.4653 17.0209C94.9645 17.8555 94.2699 18.5286 93.3922 19.0455C92.8322 19.374 92.0622 19.6486 91.0822 19.864C91.8629 20.1171 92.4337 20.3701 92.7945 20.6286C93.0368 20.7955 93.3868 21.1617 93.8445 21.7163C94.3022 22.2709 94.6091 22.7017 94.7653 23.0032L97.9476 29.0017H90.5168L87.006 22.6801C86.5591 21.8617 86.166 21.3286 85.816 21.0863C85.3422 20.7686 84.8037 20.6071 84.206 20.6071H83.6245V29.0071H77.0283V28.9963ZM83.6245 16.6871H86.3922C86.6937 16.6871 87.2699 16.5955 88.1314 16.4071C88.5676 16.3209 88.9229 16.1055 89.1976 15.7555C89.4722 15.4055 89.6122 15.0071 89.6122 14.5548C89.6122 13.8871 89.3968 13.3755 88.9606 13.0148C88.5245 12.6594 87.706 12.4763 86.5106 12.4763H83.6245V16.6871Z" fill="white"/>
<path d="M97.5332 8.30322H109.536C111.533 8.30322 113.073 8.79861 114.139 9.78399C115.211 10.7748 115.744 11.9971 115.744 13.4563C115.744 14.6786 115.362 15.7286 114.597 16.6063C114.086 17.1878 113.342 17.6509 112.362 17.9901C113.854 18.3455 114.952 18.9594 115.652 19.8317C116.358 20.704 116.708 21.7971 116.708 23.1109C116.708 24.1825 116.46 25.1463 115.959 26.0025C115.459 26.8586 114.775 27.5371 113.908 28.0325C113.369 28.3448 112.556 28.5709 111.474 28.7109C110.031 28.8994 109.072 28.9909 108.599 28.9909H97.5332V8.30322ZM104 16.4178H106.789C107.791 16.4178 108.486 16.2455 108.879 15.9009C109.272 15.5563 109.466 15.0609 109.466 14.4094C109.466 13.8063 109.272 13.3378 108.879 12.9986C108.486 12.6594 107.807 12.4925 106.832 12.4925H104V16.4178ZM104 24.5486H107.269C108.372 24.5486 109.153 24.3548 109.606 23.9617C110.058 23.5686 110.284 23.0463 110.284 22.3894C110.284 21.7755 110.058 21.2855 109.611 20.914C109.164 20.5425 108.378 20.354 107.252 20.354H103.995V24.5486H104Z" fill="white"/>
<path d="M129.361 25.5825H122.081L121.069 28.9963H114.521L122.318 8.30322H129.313L137.11 28.9963H130.395L129.361 25.5825ZM128.031 21.1078L125.743 13.6663L123.476 21.1078H128.031Z" fill="white"/>
<path d="M136.556 8.30322H142.543L150.356 19.7509V8.30322H156.398V28.9963H150.356L142.586 17.6348V28.9963H136.556V8.30322Z" fill="white"/>
<path d="M57.0786 29.9707H67.7671C70.0932 29.9707 71.8378 30.5253 72.9955 31.6292C74.1532 32.733 74.7348 34.3053 74.7348 36.3407C74.7348 38.4353 74.1048 40.0722 72.8394 41.2515C71.574 42.4307 69.6463 43.023 67.0563 43.023H63.5348V50.723H57.0786V29.9707ZM63.5348 38.8176H65.1125C66.3509 38.8176 67.2232 38.6022 67.724 38.1715C68.2248 37.7407 68.4778 37.1915 68.4778 36.5238C68.4778 35.8722 68.2625 35.323 67.8263 34.8653C67.3901 34.413 66.5717 34.1869 65.3709 34.1869H63.5401V38.8176H63.5348Z" fill="white"/>
<path d="M74.5405 29.9707H80.9698V45.613H91.0013V50.723H74.5405V29.9707Z" fill="white"/>
<path d="M100.096 47.2984H92.8003L91.788 50.723H85.2241L93.0426 29.9707H100.053L107.872 50.723H101.141L100.096 47.2984ZM98.761 42.8076L96.4672 35.3499L94.1949 42.8076H98.761Z" fill="white"/>
<path d="M106.509 29.9707H112.513L120.348 41.4507V29.9707H126.405V50.723H120.348L112.556 39.3292V50.723H106.509V29.9707Z" fill="white"/>
<path d="M121.085 29.9707H138.311V34.4022H127.525V37.703H137.53V41.9353H127.525V46.0276H138.623V50.7284H121.085V29.9707Z" fill="white"/>
<path d="M136.857 29.9707H156.398V35.0969H149.839V50.723H143.41V35.0969H136.852V29.9707H136.857Z" fill="white"/>
<path d="M13.1885 59.5594L15.0031 59.4463C15.0408 59.7425 15.1216 59.9632 15.2454 60.1194C15.4392 60.3671 15.7192 60.4909 16.0854 60.4909C16.3546 60.4909 16.5646 60.4263 16.7154 60.3025C16.8608 60.1732 16.9362 60.0279 16.9362 59.8609C16.9362 59.6994 16.8662 59.5594 16.7262 59.4356C16.5862 59.3117 16.2631 59.1932 15.7516 59.0802C14.9169 58.8917 14.3192 58.644 13.9639 58.3317C13.6031 58.0194 13.4254 57.6263 13.4254 57.1471C13.4254 56.8294 13.5169 56.5332 13.7 56.2532C13.8831 55.9732 14.1577 55.7525 14.5292 55.5909C14.8954 55.4294 15.4016 55.3486 16.0477 55.3486C16.8339 55.3486 17.4369 55.494 17.8516 55.7848C18.2662 56.0756 18.5085 56.544 18.5892 57.1794L16.7962 57.2817C16.7477 57.0071 16.6508 56.8025 16.4946 56.6786C16.3439 56.5548 16.1285 56.4902 15.8592 56.4902C15.6385 56.4902 15.4716 56.5386 15.3585 56.6302C15.2454 56.7217 15.1916 56.8402 15.1916 56.9694C15.1916 57.0663 15.24 57.1579 15.3316 57.2332C15.4231 57.314 15.6331 57.3894 15.9723 57.4594C16.8069 57.6371 17.3992 57.8202 17.76 58.0032C18.1208 58.1863 18.3846 58.4125 18.5462 58.6871C18.7077 58.9563 18.7939 59.2632 18.7939 59.5971C18.7939 59.9902 18.6862 60.3563 18.4654 60.6902C18.2446 61.024 17.9431 61.2771 17.55 61.4494C17.1569 61.6217 16.6616 61.7079 16.0639 61.7079C15.0139 61.7079 14.2869 61.5086 13.8831 61.1048C13.4739 60.6902 13.2423 60.1786 13.1885 59.5594Z" fill="white"/>
<path d="M27.9263 55.4458H33.7148V56.9643H31.7709V61.595H29.8647V56.9643H27.9209V55.4458H27.9263Z" fill="white"/>
<path d="M43.2236 61.595V55.4458H46.4006C46.9875 55.4458 47.4398 55.4943 47.7521 55.5966C48.0644 55.6989 48.3121 55.882 48.5059 56.1566C48.6944 56.4312 48.7913 56.7596 48.7913 57.1527C48.7913 57.492 48.7159 57.7881 48.5706 58.0358C48.4252 58.2835 48.2259 58.4827 47.9675 58.6389C47.8059 58.7358 47.5798 58.8166 47.2998 58.8812C47.5259 58.9566 47.6929 59.032 47.7952 59.1073C47.8652 59.1558 47.9675 59.2635 48.1021 59.4304C48.2367 59.5973 48.3229 59.7212 48.3713 59.8127L49.2921 61.595H47.1382L46.1206 59.7158C45.9913 59.4735 45.8782 59.3173 45.7759 59.242C45.6359 59.145 45.4852 59.102 45.3075 59.102H45.1406V61.595H43.2236ZM45.1406 57.9335H45.9429C46.029 57.9335 46.1959 57.9066 46.449 57.8473C46.5729 57.8204 46.6806 57.7558 46.7559 57.6535C46.8367 57.5512 46.8744 57.4327 46.8744 57.2981C46.8744 57.0989 46.8098 56.9481 46.6859 56.8404C46.5621 56.7327 46.3252 56.6789 45.9752 56.6789H45.1406V57.9335Z" fill="white"/>
<path d="M58.5161 55.4458H63.6207V56.7596H60.4277V57.7343H63.3946V58.9889H60.4277V60.2004H63.7176V61.595H58.5215V55.4458H58.5161Z" fill="white"/>
<path d="M73.3506 55.4458H78.4552V56.7596H75.2621V57.7343H78.2291V58.9889H75.2621V60.2004H78.5521V61.595H73.356V55.4458H73.3506Z" fill="white"/>
<path d="M87.7651 55.4458H93.5536V56.9643H91.6098V61.595H89.7036V56.9643H87.7598V55.4458H87.7651Z" fill="white"/>
<path d="M102.401 55.4458H104.21L104.862 58.8866L105.815 55.4458H107.619L108.572 58.8812L109.223 55.4458H111.022L109.665 61.595H107.796L106.714 57.7235L105.637 61.595H103.769L102.401 55.4458Z" fill="white"/>
<path d="M120.262 55.4458H125.366V56.7596H122.173V57.7343H125.14V58.9889H122.173V60.2004H125.463V61.595H120.267V55.4458H120.262Z" fill="white"/>
<path d="M138.892 60.5774H136.728L136.426 61.5897H134.482L136.798 55.4404H138.876L141.192 61.5897H139.199L138.892 60.5774ZM138.499 59.2474L137.821 57.0397L137.148 59.2474H138.499Z" fill="white"/>
<path d="M150.448 61.595V55.4458H153.625C154.212 55.4458 154.664 55.4943 154.976 55.5966C155.289 55.6989 155.536 55.882 155.73 56.1566C155.919 56.4312 156.015 56.7596 156.015 57.1527C156.015 57.492 155.94 57.7881 155.795 58.0358C155.649 58.2835 155.45 58.4827 155.192 58.6389C155.03 58.7358 154.804 58.8166 154.524 58.8812C154.75 58.9566 154.917 59.032 155.019 59.1073C155.089 59.1558 155.192 59.2635 155.326 59.4304C155.461 59.5973 155.547 59.7212 155.595 59.8127L156.516 61.595H154.362L153.345 59.7158C153.215 59.4735 153.102 59.3173 153 59.242C152.865 59.145 152.709 59.102 152.532 59.102H152.365V61.595H150.448ZM152.359 57.9335H153.162C153.248 57.9335 153.415 57.9066 153.668 57.8473C153.792 57.8204 153.899 57.7558 153.975 57.6535C154.055 57.5512 154.093 57.4327 154.093 57.2981C154.093 57.0989 154.029 56.9481 153.905 56.8404C153.781 56.7327 153.544 56.6789 153.194 56.6789H152.359V57.9335Z" fill="white"/>
</svg>
