<svg width="107" height="42" viewBox="0 0 107 42" fill="none" xmlns="http://www.w3.org/2000/svg">
<path d="M90.9686 25.048C92.1446 25.072 92.9606 25.288 93.4166 25.696C93.8726 26.104 94.1006 26.596 94.1006 27.172C94.1006 27.772 93.9206 28.408 93.5606 29.08C93.2006 29.728 92.7926 30.292 92.3366 30.772C93.0326 30.748 93.7406 30.628 94.4606 30.412C95.2046 30.196 95.9726 29.92 96.7646 29.584C96.8366 29.944 96.8726 30.424 96.8726 31.024C96.8726 31.288 96.8606 31.552 96.8366 31.816C96.8366 32.08 96.7766 32.32 96.6566 32.536C96.5606 32.752 96.4046 32.932 96.1886 33.076C95.9726 33.22 95.6606 33.292 95.2526 33.292C94.6766 33.292 94.1006 33.256 93.5246 33.184C92.9486 33.088 92.3606 32.908 91.7606 32.644C92.0006 33.292 92.3246 33.928 92.7326 34.552C93.1406 35.152 93.6446 35.8 94.2446 36.496C93.7886 36.76 93.3206 36.964 92.8406 37.108C92.3846 37.252 91.9526 37.324 91.5446 37.324C91.1366 37.324 90.8126 37.18 90.5726 36.892C90.3326 36.58 90.1526 36.22 90.0326 35.812C89.9126 35.38 89.8286 34.936 89.7806 34.48C89.7566 34.024 89.7446 33.64 89.7446 33.328C89.7446 33.208 89.7446 33.1 89.7446 33.004C89.7446 32.884 89.7566 32.764 89.7806 32.644C89.2286 33.076 88.7246 33.58 88.2686 34.156C87.8366 34.732 87.3926 35.428 86.9366 36.244C86.7686 36.1 86.5886 35.932 86.3966 35.74C86.2046 35.524 86.0126 35.296 85.8206 35.056C85.6526 34.792 85.5086 34.516 85.3886 34.228C85.2686 33.916 85.2086 33.592 85.2086 33.256C85.2086 32.968 85.3766 32.692 85.7126 32.428C86.0486 32.14 86.4326 31.888 86.8646 31.672C87.3206 31.432 87.7646 31.24 88.1966 31.096C88.6526 30.928 88.9766 30.82 89.1686 30.772C88.6166 30.412 87.9926 30.112 87.2966 29.872C86.6006 29.608 85.7966 29.38 84.8846 29.188C85.1486 28.276 85.4846 27.64 85.8926 27.28C86.3006 26.92 86.7206 26.74 87.1526 26.74C87.4886 26.74 87.8246 26.824 88.1606 26.992C88.5206 27.16 88.8566 27.388 89.1686 27.676C89.4806 27.964 89.7686 28.288 90.0326 28.648C90.2966 28.984 90.5246 29.332 90.7166 29.692C90.8846 29.284 90.9926 28.864 91.0406 28.432C91.1126 28 91.1486 27.568 91.1486 27.136C91.1486 26.776 91.1246 26.428 91.0766 26.092C91.0526 25.756 91.0166 25.408 90.9686 25.048Z" fill="#CDCFC8"/>
<path d="M57.6066 19.2932C56.66 19.2932 55.7666 19.1865 54.9266 18.9732C54.1 18.7599 53.46 18.4932 53.0066 18.1732L54.2066 15.9132C54.6733 16.2199 55.24 16.4665 55.9066 16.6532C56.5866 16.8399 57.2666 16.9332 57.9466 16.9332C58.68 16.9332 59.2133 16.8399 59.5466 16.6532C59.88 16.4665 60.0466 16.2132 60.0466 15.8932C60.0466 15.6399 59.9066 15.4532 59.6266 15.3332C59.3466 15.1999 58.9933 15.0932 58.5666 15.0132C58.14 14.9332 57.68 14.8399 57.1866 14.7332C56.7066 14.6265 56.2466 14.4799 55.8066 14.2932C55.38 14.0932 55.0266 13.8132 54.7466 13.4532C54.48 13.0799 54.3466 12.5932 54.3466 11.9932C54.3466 11.1799 54.5733 10.4932 55.0266 9.93319C55.4933 9.37319 56.1333 8.94653 56.9466 8.65319C57.7733 8.35986 58.7066 8.21319 59.7466 8.21319C60.4933 8.21319 61.22 8.29319 61.9266 8.45319C62.6333 8.61319 63.2333 8.83319 63.7266 9.11319L62.6066 11.3932C62.1 11.0732 61.5666 10.8599 61.0066 10.7532C60.46 10.6332 59.9333 10.5732 59.4266 10.5732C58.6933 10.5732 58.16 10.6799 57.8266 10.8932C57.5066 11.0932 57.3466 11.3399 57.3466 11.6332C57.3466 11.8865 57.48 12.0865 57.7466 12.2332C58.0266 12.3665 58.38 12.4799 58.8066 12.5732C59.2333 12.6532 59.6933 12.7465 60.1866 12.8532C60.68 12.9465 61.14 13.0932 61.5666 13.2932C61.9933 13.4799 62.34 13.7532 62.6066 14.1132C62.8866 14.4599 63.0266 14.9332 63.0266 15.5332C63.0266 16.3465 62.7866 17.0399 62.3066 17.6132C61.84 18.1732 61.2 18.5932 60.3866 18.8732C59.5733 19.1532 58.6466 19.2932 57.6066 19.2932ZM72.7116 8.21319C73.6183 8.21319 74.3916 8.40653 75.0316 8.79319C75.6716 9.16653 76.125 9.71986 76.3916 10.4532C76.6716 11.1865 76.705 12.0932 76.4916 13.1732L75.2916 19.1332H72.1716L73.3316 13.3732C73.4916 12.5865 73.425 11.9799 73.1316 11.5532C72.8516 11.1265 72.3316 10.9132 71.5716 10.9132C70.785 10.9132 70.125 11.1399 69.5916 11.5932C69.0716 12.0465 68.7116 12.7399 68.5116 13.6732L67.4316 19.1332H64.3116L67.2716 4.29319H70.3916L68.9716 11.4132L68.3516 10.4932C68.8716 9.70653 69.5116 9.13319 70.2716 8.77319C71.045 8.39986 71.8583 8.21319 72.7116 8.21319ZM83.7988 19.2932C82.7055 19.2932 81.7521 19.0932 80.9388 18.6932C80.1255 18.2932 79.4921 17.7332 79.0388 17.0132C78.5988 16.2932 78.3788 15.4465 78.3788 14.4732C78.3788 13.2732 78.6588 12.2065 79.2188 11.2732C79.7788 10.3265 80.5455 9.57986 81.5188 9.03319C82.5055 8.48653 83.6255 8.21319 84.8788 8.21319C85.9855 8.21319 86.9388 8.41319 87.7388 8.81319C88.5521 9.21319 89.1788 9.77319 89.6188 10.4932C90.0721 11.1999 90.2988 12.0465 90.2988 13.0332C90.2988 14.2199 90.0188 15.2865 89.4588 16.2332C88.8988 17.1799 88.1321 17.9265 87.1588 18.4732C86.1855 19.0199 85.0655 19.2932 83.7988 19.2932ZM83.9988 16.7332C84.6121 16.7332 85.1521 16.5865 85.6188 16.2932C86.0988 15.9865 86.4721 15.5665 86.7388 15.0332C87.0055 14.4999 87.1388 13.8799 87.1388 13.1732C87.1388 12.4532 86.9255 11.8732 86.4988 11.4332C86.0721 10.9932 85.4721 10.7732 84.6988 10.7732C84.0855 10.7732 83.5388 10.9265 83.0588 11.2332C82.5921 11.5265 82.2188 11.9399 81.9388 12.4732C81.6721 13.0065 81.5388 13.6265 81.5388 14.3332C81.5388 15.0665 81.7521 15.6532 82.1788 16.0932C82.6055 16.5199 83.2121 16.7332 83.9988 16.7332ZM98.1448 19.2932C97.2781 19.2932 96.5181 19.1265 95.8648 18.7932C95.2248 18.4599 94.7448 17.9465 94.4248 17.2532C94.1048 16.5465 93.9914 15.6399 94.0848 14.5332C94.1648 13.2532 94.4248 12.1399 94.8648 11.1932C95.3181 10.2465 95.9314 9.51319 96.7048 8.99319C97.4781 8.47319 98.3914 8.21319 99.4448 8.21319C100.285 8.21319 101.058 8.40653 101.765 8.79319C102.471 9.16653 103.038 9.71319 103.465 10.4332C103.891 11.1399 104.105 12.0065 104.105 13.0332C104.105 13.9265 103.951 14.7599 103.645 15.5332C103.338 16.2932 102.911 16.9532 102.365 17.5132C101.831 18.0732 101.205 18.5132 100.485 18.8332C99.7648 19.1399 98.9848 19.2932 98.1448 19.2932ZM90.4848 23.0132L93.4048 8.37319H96.3648L95.9248 10.5132L95.2448 13.7132L94.8248 16.9132L93.6048 23.0132H90.4848ZM97.7848 16.7132C98.4114 16.7132 98.9581 16.5665 99.4248 16.2732C99.8914 15.9665 100.258 15.5532 100.525 15.0332C100.805 14.4999 100.945 13.8799 100.945 13.1732C100.945 12.4399 100.731 11.8599 100.305 11.4332C99.8781 11.0065 99.2714 10.7932 98.4848 10.7932C97.8848 10.7932 97.3448 10.9465 96.8648 11.2532C96.3848 11.5465 96.0114 11.9599 95.7448 12.4932C95.4781 13.0132 95.3448 13.6265 95.3448 14.3332C95.3448 15.0665 95.5581 15.6465 95.9848 16.0732C96.4114 16.4999 97.0114 16.7132 97.7848 16.7132Z" fill="#CDCFC8"/>
<path d="M22.1971 27.288C23.5198 27.7787 24.5438 28.4933 25.2691 29.432C25.9945 30.3707 26.3571 31.5013 26.3571 32.824C26.3571 34.7867 25.5465 36.312 23.9251 37.4C22.3038 38.4667 19.9571 39 16.8851 39H4.27713V16.6H16.2451C19.2318 16.6 21.4825 17.1333 22.9971 18.2C24.5331 19.2667 25.3011 20.6853 25.3011 22.456C25.3011 23.5013 25.0345 24.44 24.5011 25.272C23.9891 26.104 23.2211 26.776 22.1971 27.288ZM11.7011 21.88V25.208H15.2211C16.8638 25.208 17.6851 24.6533 17.6851 23.544C17.6851 22.4347 16.8638 21.88 15.2211 21.88H11.7011ZM16.2451 33.72C17.9091 33.72 18.7411 33.1333 18.7411 31.96C18.7411 30.7867 17.9091 30.2 16.2451 30.2H11.7011V33.72H16.2451ZM28.8031 21.496H36.0351V39H28.8031V21.496ZM32.4191 20.088C31.1178 20.088 30.0618 19.7467 29.2511 19.064C28.4618 18.36 28.0671 17.4747 28.0671 16.408C28.0671 15.3413 28.4618 14.4667 29.2511 13.784C30.0618 13.08 31.1178 12.728 32.4191 12.728C33.7418 12.728 34.7978 13.0587 35.5871 13.72C36.3765 14.3813 36.7711 15.2347 36.7711 16.28C36.7711 17.3893 36.3765 18.3067 35.5871 19.032C34.7978 19.736 33.7418 20.088 32.4191 20.088ZM47.6246 33.624L46.4726 34.872V39H39.2406V15.256H46.4726V26.584L51.4966 21.496H60.0406L52.8086 29.08L60.6166 39H51.8806L47.6246 33.624ZM71.1286 33.976C71.8966 33.976 72.5366 33.88 73.0486 33.688C73.582 33.496 74.158 33.1653 74.7766 32.696L78.5526 36.504C76.8033 38.3813 74.254 39.32 70.9046 39.32C68.7926 39.32 66.9366 38.936 65.3366 38.168C63.7366 37.3787 62.4993 36.2907 61.6246 34.904C60.75 33.5173 60.3126 31.96 60.3126 30.232C60.3126 28.4827 60.75 26.9253 61.6246 25.56C62.4993 24.1733 63.694 23.096 65.2086 22.328C66.7446 21.56 68.462 21.176 70.3606 21.176C72.0886 21.176 73.678 21.528 75.1286 22.232C76.5793 22.9147 77.7313 23.9387 78.5846 25.304C79.438 26.648 79.8646 28.2587 79.8646 30.136L67.8966 32.44C68.43 33.464 69.5073 33.976 71.1286 33.976ZM70.3926 26.104C69.5606 26.104 68.878 26.3493 68.3446 26.84C67.8326 27.3307 67.5233 28.056 67.4166 29.016L73.0166 27.928C72.8246 27.3733 72.494 26.936 72.0246 26.616C71.5766 26.2747 71.0326 26.104 70.3926 26.104Z" fill="#CDCFC8"/>
</svg>
